<?xml version="1.0" encoding="UTF-8"?>
<svg id="Capa_2" data-name="Capa 2" xmlns="http://www.w3.org/2000/svg" viewBox="0 0 828.4 848.96">
  <g id="Capa_1-2" data-name="Capa 1">
    <g>
      <path d="M734.82,433.83h0c3.4,9.19,16.39,9.19,19.78.01h0c8.44-22.82,26.43-40.81,49.25-49.25h0c9.18-3.4,9.18-16.39,0-19.78h0c-22.82-8.44-40.8-26.43-49.25-49.25h0c-3.4-9.19-16.39-9.19-19.78,0h0c-8.44,22.82-26.43,40.81-49.25,49.25h0c-9.18,3.4-9.18,16.39,0,19.78h0c22.81,8.44,40.8,26.43,49.24,49.24Z"/>
      <path d="M769.5,583.85c-26.84-20.64-59.24-31.23-92.97-30.74-13.34-59.15-48.2-109-97.99-141.2,8.44-27.95,16.22-58.79,23.44-92.76,16.1-75.74,19.03-136.06,12.12-182.97C599.88,39.65,543.95,0,475.21,0h-128.58l-103.05,484.05c-15.94-2.29-32.41-1.76-48.92,1.77-50.25,10.72-88.86,47.45-101.94,95.55-26.19,9.07-48.94,26-66.44,49.59C.11,666.25-6.92,710.58,7.01,752.6c19.41,58.56,73.52,96.37,137.89,96.37h.19l541.43-.65c51.12-.06,98.8-29.3,124.43-76.32.04-.07.08-.14.12-.22,34.11-64.15,16.63-143.18-41.57-187.93ZM454.24,80.23h0c2.79,0,5.45.34,7.96,1.01,32.7,8.73,42.3,73.59,24.93,183.37-2.71,17.11-6.07,35.29-10.11,54.54-1.37,6.35-2.76,12.58-4.18,18.7-.1.42-.19.84-.29,1.26-.58,2.49-1.16,4.96-1.75,7.41-.21.87-.41,1.74-.62,2.6-.53,2.21-1.07,4.39-1.61,6.57-.27,1.1-.55,2.21-.82,3.31-.49,1.95-.98,3.88-1.48,5.8-.35,1.36-.7,2.71-1.05,4.06-.43,1.63-.85,3.24-1.28,4.85-.2.75-.4,1.49-.6,2.23-25.36-.87-50.26,2.51-73.84,9.82l64.72-305.54s0,0,.01,0ZM769.17,749.35c-17.32,31.69-49,51.4-82.7,51.44l-541.43.65h-.14c-43.52,0-79.94-25.03-92.79-63.8-8.99-27.12-4.49-55.69,12.34-78.38,13.89-18.73,32.49-31.12,53.77-35.81,9.56-2.11,16.77-9.75,18.22-19.43,5.36-35.89,32.12-64.07,68.14-71.75,6.62-1.41,13.22-2.11,19.71-2.11,13.07,0,25.73,2.84,37.35,8.46,3.2,1.55,6.63,2.65,10.18,2.77,9.86.34,18.47-5.19,22.44-13.55,24.94-52.42,69.68-87.44,120.99-99.62,15.33-3.64,28.57,11.36,22.84,26.03-.1.27-.21.53-.31.8-8.01,20.38-3.83,43.6,11.16,59.56,12.61,13.43,23.31,28.56,31.84,45.09,5.16,10,19.07,11.3,26.1,2.51,21.28-26.58,39.67-60.75,55.82-103.43,38.57,28.9,64.01,72.13,70.61,122.38.47,3.55,1.53,7.04,3.46,10.06,5.33,8.38,14.81,12.36,24.02,10.85,28.95-4.75,57.27,2.14,79.74,19.42,39.7,30.53,51.74,84.27,28.64,127.84Z"/>
    </g>
  </g>
</svg>