<?xml version="1.0" encoding="UTF-8"?>
<svg id="Capa_2" data-name="Capa 2" xmlns="http://www.w3.org/2000/svg" viewBox="0 0 1666.75 460.55">
  <g id="Capa_1-2" data-name="Capa 1">
    <g>
      <g>
        <path d="M57.19,8.06h54.12c42.99,0,74.08,36.85,53.35,134.34-20.73,97.49-52.2,134.34-110.54,134.34H0L57.19,8.06ZM112.07,142.4c13.43-64.1,9.21-100.56-9.6-100.56l-42.6,201.12c18.81,0,38.38-36.46,52.2-100.56Z"/>
        <path d="M194.97,78.68h49.9l-7.29,33.78c9.21-24.95,21.88-39.54,45.67-36.85l-12.67,59.11c-16.5-13.43-36.85-4.6-43.37,26.1l-24.56,115.91h-49.9l42.22-198.05Z"/>
        <path d="M267.51,177.71c15.74-73.31,40.3-102.86,83.29-102.86s57.96,35.31,41.45,108.62h-76c-8.06,39.92-9.6,62.56,0,62.56,7.68,0,17.66-19.19,23.03-47.59h49.9c-11.51,55.27-33.78,82.14-79.07,82.14s-57.19-33.39-42.61-102.86ZM348.5,154.3c4.99-29.17,3.84-45.29-3.45-45.29s-14.97,16.5-22.26,45.29h25.72Z"/>
        <path d="M477.84,110.16c-9.6,0-15.74,19.19-19.96,49.9h-49.13c8.06-56.04,28.79-85.98,79.07-85.21,32.62.38,52.58,21.88,44.52,60.26l-29.94,141.63h-49.9l3.84-18.81c-8.06,14.2-19.96,22.65-36.85,22.65-31.09,0-32.62-30.71-29.17-47.21,12.67-58.72,83.29-54.89,90.58-89.43,4.61-21.11,4.99-33.78-3.07-33.78ZM472.08,184.62c-12.28,12.28-25.72,20.73-29.94,40.69-2.3,11.9,0,18.04,6.91,18.04,8.44,0,13.05-11.9,15.35-22.26l7.68-36.46Z"/>
        <path d="M563.8,78.68h49.9l-4.61,20.73c9.21-16.89,20.73-24.56,38.77-24.56,16.12,0,28.02,10.75,28.79,33.78,9.21-23.03,21.49-33.78,42.6-33.78s34.54,17.66,26.1,56.42l-31.09,145.47h-49.9l25.33-118.98c6.91-33.01,8.06-45.67-.77-45.67-7.29,0-11.9,7.29-16.5,25.71l-29.55,138.94h-49.9l25.33-118.98c6.91-33.01,8.06-45.67-.77-45.67-7.68,0-12.28,8.06-16.89,28.02l-29.17,136.64h-49.9l42.22-198.05Z"/>
        <path d="M749.56,177.71c14.59-68.7,38.77-102.86,84.06-102.86,36.85,0,55.27,31.86,43.37,85.59h-49.9c7.68-33.78,6.53-50.28-1.15-50.28-8.45,0-16.89,22.26-26.48,67.55-9.6,45.29-10.36,67.55-1.92,67.55s16.89-19.57,23.8-58.72h49.9c-14.58,66.79-37.23,94.04-81.37,94.04-37.61,0-54.89-34.16-40.3-102.86Z"/>
        <path d="M908.84,78.68h49.9l-7.29,33.78c9.21-24.95,21.88-39.54,45.67-36.85l-12.67,59.11c-16.5-13.43-36.85-4.6-43.37,26.1l-24.56,115.91h-49.9l42.22-198.05Z"/>
        <path d="M1055.45,110.16c-9.6,0-15.74,19.19-19.96,49.9h-49.13c8.06-56.04,28.79-85.98,79.07-85.21,32.62.38,52.58,21.88,44.52,60.26l-29.94,141.63h-49.9l3.84-18.81c-8.06,14.2-19.96,22.65-36.85,22.65-31.09,0-32.62-30.71-29.17-47.21,12.67-58.72,83.29-54.89,90.58-89.43,4.61-21.11,4.99-33.78-3.07-33.78ZM1049.69,184.62c-12.28,12.28-25.72,20.73-29.94,40.69-2.3,11.9,0,18.04,6.91,18.04,8.44,0,13.05-11.9,15.35-22.26l7.68-36.46Z"/>
        <path d="M1211.28,0c9.98,0,19.19,2.3,27.64,5.76l-6.14,29.94c-3.45-1.53-7.68-3.07-11.9-3.07-12.28,0-16.89,11.9-21.49,33.77l-2.69,12.28h26.1l-6.91,31.47h-25.71l-35.7,166.58h-49.9l35.31-166.58h-15.35l6.91-31.47h14.97l3.84-17.27c9.21-42.99,24.95-61.41,61.03-61.41Z"/>
        <path d="M1212.81,223l23.8-112.84h-15.35l6.91-31.47h15.35l10.36-49.51h49.9l-10.36,49.51h26.1l-6.91,31.47h-26.1l-21.88,103.25c-4.6,21.88-4.99,34.16,8.06,34.16,3.45,0,6.91-.77,9.98-1.92l-6.53,29.94c-8.44,2.69-18.81,4.99-29.17,4.99-24.95,0-42.6-18.04-34.16-57.57Z"/>
        <path d="M1304.54,177.71c15.73-73.31,40.3-102.86,83.29-102.86s57.96,35.31,41.45,108.62h-76c-8.06,39.92-9.6,62.56,0,62.56,7.68,0,17.66-19.19,23.03-47.59h49.9c-11.51,55.27-33.78,82.14-79.07,82.14s-57.19-33.39-42.6-102.86ZM1385.52,154.3c4.99-29.17,3.84-45.29-3.45-45.29s-14.97,16.5-22.26,45.29h25.71Z"/>
        <path d="M1466.12,78.68h49.9l-7.29,33.78c9.21-24.95,21.88-39.54,45.67-36.85l-12.67,59.11c-16.5-13.43-36.85-4.6-43.37,26.1l-24.56,115.91h-49.9l42.22-198.05Z"/>
        <path d="M1532.51,202.27l47.98.77c-10.36,30.71-6.53,43.37,3.84,43.37,5.76,0,10.75-3.45,13.05-13.43,9.21-38.77-58.34-54.5-44.14-112.46,6.53-26.87,28.4-45.29,60.64-45.29,41.45,0,61.8,27.25,49.13,71.01l-45.29-.77c9.21-27.64,4.61-36.85-3.84-36.85-5.76,0-11.13,4.22-12.67,12.28-7.68,33.01,60.64,49.9,46.83,109.77-7.29,31.47-29.55,49.51-64.1,49.51-49.13,0-65.25-33.01-51.43-77.92Z"/>
      </g>
      <g>
        <path d="M170.54,460.55h-16.34c7.95-25.93,15.74-56.06,20.99-80.8h8.7c-5.25,24.73-10.19,54.87-13.34,80.8ZM190.78,364.32c-1.05,5.4-4.95,9-9.29,9-5.1,0-7.94-4.35-6.75-10.05,1.05-5.25,4.95-8.69,9.44-8.69,5.1,0,7.8,4.2,6.6,9.74Z"/>
        <path d="M220.95,328.34h19.19l-10.04,104.93h-13.79l2.55-21.29h-12.74l-6.6,21.29h-13.34l34.78-104.93ZM220.05,401.64l6.6-55.76-17.24,55.76h10.64Z"/>
        <path d="M256.51,355.92h13.64l-2.55,11.84c3-8.09,7.35-13.34,15.29-12.89l-3.6,16.64c-5.7-3.9-12.29-.75-15.14,12.44l-10.49,49.32h-13.64l16.49-77.35Z"/>
        <path d="M283.68,412.73l10.04-47.37h-5.7l2.1-9.44h5.7l4.05-19.34h13.49l-4.05,19.34h8.99l-2.1,9.44h-8.99l-10.04,47.67c-1.65,7.49-1.65,11.69,2.55,11.69,1.05,0,2.4-.3,3.75-.75l-1.95,8.99c-2.55.9-5.4,1.65-8.54,1.65-7.79,0-12.74-6-9.29-21.89Z"/>
        <path d="M328.68,355.92h13.64l-16.49,77.35h-13.64l16.49-77.35ZM330.93,339.28c1.2-5.7,4.95-8.99,9.74-8.99,4.5,0,7.35,3.9,6.15,9.89-1.2,5.55-4.95,8.99-9.74,8.99-4.35,0-7.35-4.05-6.14-9.89Z"/>
        <path d="M379.08,325.34c3.15,0,6,.75,8.39,1.95l-1.95,8.99c-1.35-.6-2.85-1.2-4.2-1.2-4.05,0-5.85,4.2-7.49,12.29l-1.8,8.54h8.69l-2.1,9.44h-8.69l-14.39,67.91h-13.64l14.39-67.91h-5.7l2.1-9.44h5.7l1.65-8.09c3.45-16.49,8.54-22.48,19.04-22.48Z"/>
        <path d="M390.36,355.92h13.64l-16.49,77.35h-13.64l16.49-77.35ZM392.61,339.28c1.2-5.7,4.95-8.99,9.74-8.99,4.5,0,7.35,3.9,6.15,9.89-1.2,5.55-4.95,8.99-9.74,8.99-4.35,0-7.35-4.05-6.14-9.89Z"/>
        <path d="M407.18,394.6c6-28.48,12.89-40.02,27.28-40.02,10.94,0,16.19,9.89,11.39,32.23h-13.64c3.45-14.99,3.45-21.89,0-21.89-3.75,0-7.05,8.4-11.54,29.68-4.5,21.29-4.8,29.53-1.05,29.53,3.3,0,7.2-9.89,10.34-26.68h13.49c-6,28.33-13.04,37.18-26.08,37.18-12.14,0-16.19-11.54-10.19-40.03Z"/>
        <path d="M463.88,355.92h13.64l-16.49,77.35h-13.64l16.49-77.35ZM466.13,339.28c1.2-5.7,4.95-8.99,9.74-8.99,4.5,0,7.35,3.9,6.15,9.89-1.2,5.55-4.95,8.99-9.74,8.99-4.35,0-7.35-4.05-6.14-9.89Z"/>
        <path d="M505.13,364.92c-3.6,0-6.6,7.19-8.84,21.89h-13.34c3.75-22.33,10.49-32.23,24.73-32.23,9.89.15,15.59,7.19,11.84,25.18l-11.39,53.52h-13.49l1.5-6.75c-3,5.1-6.9,8.09-12.59,8.09-7.64,0-10.49-8.25-8.69-16.94,4.5-21.14,28.03-22.94,31.18-37.78,1.65-7.19,3-14.99-.9-14.99ZM491.64,423.53c3.6,0,6.3-5.85,7.5-11.39l3.75-17.54c-5.4,6.15-11.84,10.94-13.94,20.24-.9,5.1-.45,8.7,2.7,8.7Z"/>
        <path d="M543.84,326.54h13.64l-22.64,106.73h-13.64l22.64-106.73Z"/>
        <path d="M564.56,355.92h13.64l-1.5,6.9c3-5.7,6.75-8.24,12.14-8.24s8.7,3.75,9.14,10.94c3.3-7.49,7.49-10.94,13.94-10.94,7.49,0,11.09,7.35,7.94,22.19l-12.14,56.51h-13.49l10.34-48.57c3.15-14.84,3.15-20.09-.45-20.09-3,0-5.25,3.6-7.65,13.49l-11.69,55.17h-13.64l10.34-48.57c3.15-14.84,3.3-20.09-.45-20.09-3.15,0-5.55,3.9-7.79,14.39l-11.54,54.27h-13.64l16.49-77.35Z"/>
        <path d="M627.41,394.6c6.15-29.08,13.49-40.02,27.13-40.02s16.34,13.04,10.19,39.87h-24.13v.15c-4.5,20.99-4.8,29.68-.6,29.68,3.75,0,7.65-10.05,9.89-23.39h13.64c-5.7,25.78-12.74,33.73-25.63,33.73s-16.49-11.39-10.49-40.03ZM653.5,385.6c2.7-13.04,2.7-20.69-.75-20.69s-6.6,6.14-10.04,20.69h10.79Z"/>
        <path d="M684.41,355.92h13.64l-1.65,7.8c3.3-6.75,7.2-9.14,12.29-9.14,7.5,0,11.09,7.19,7.95,22.19l-11.99,56.51h-13.64l10.34-48.57c3.15-14.84,3.3-20.09-.45-20.09s-5.85,5.25-8.99,20.09l-10.34,48.57h-13.64l16.49-77.35Z"/>
        <path d="M723.87,412.73l10.04-47.37h-5.7l2.1-9.44h5.7l4.05-19.34h13.49l-4.05,19.34h8.99l-2.1,9.44h-8.99l-10.04,47.67c-1.65,7.49-1.65,11.69,2.55,11.69,1.05,0,2.4-.3,3.75-.75l-1.95,8.99c-2.55.9-5.4,1.65-8.55,1.65-7.79,0-12.74-6-9.29-21.89Z"/>
        <path d="M757.93,394.6c6.15-29.08,13.49-40.02,27.13-40.02s16.34,13.04,10.19,39.87h-24.13v.15c-4.5,20.99-4.8,29.68-.6,29.68,3.75,0,7.65-10.05,9.89-23.39h13.64c-5.7,25.78-12.74,33.73-25.63,33.73s-16.49-11.39-10.49-40.03ZM784.02,385.6c2.7-13.04,2.7-20.69-.75-20.69s-6.6,6.14-10.04,20.69h10.79Z"/>
        <path d="M799.34,424.58c1.05-5.4,4.95-8.99,9.29-8.99,5.1,0,7.95,4.35,6.75,10.04-1.05,5.25-4.95,8.7-9.44,8.7-5.1,0-7.79-4.2-6.6-9.74Z"/>
        <path d="M826.81,424.58c1.05-5.4,4.95-8.99,9.29-8.99,5.1,0,7.95,4.35,6.75,10.04-1.05,5.25-4.95,8.7-9.44,8.7-5.1,0-7.79-4.2-6.6-9.74Z"/>
        <path d="M854.27,424.58c1.05-5.4,4.95-8.99,9.29-8.99,5.1,0,7.95,4.35,6.75,10.04-1.05,5.25-4.95,8.7-9.44,8.7-5.1,0-7.79-4.2-6.6-9.74Z"/>
        <path d="M903.63,326.54h13.64l-6.3,29.38-1.65,7.8c3.3-6.75,7.2-9.14,12.29-9.14,7.5,0,11.09,7.19,7.95,22.19l-11.99,56.51h-13.64l10.34-48.57c3.15-14.84,3.3-20.09-.45-20.09s-5.85,5.25-8.99,20.09l-10.34,48.57h-13.64l16.34-76.75,6.45-29.98Z"/>
        <path d="M937.09,394.6c6.15-29.08,13.49-40.02,27.13-40.02s16.34,13.04,10.19,39.87h-24.13v.15c-4.5,20.99-4.8,29.68-.6,29.68,3.75,0,7.65-10.05,9.89-23.39h13.64c-5.7,25.78-12.74,33.73-25.63,33.73s-16.49-11.39-10.49-40.03ZM963.17,385.6c2.7-13.04,2.7-20.69-.75-20.69s-6.6,6.14-10.04,20.69h10.79Z"/>
        <path d="M984.79,394.6c6-28.48,12.89-40.02,27.28-40.02,10.94,0,16.19,9.89,11.39,32.23h-13.64c3.45-14.99,3.45-21.89,0-21.89-3.75,0-7.05,8.4-11.54,29.68-4.5,21.29-4.8,29.53-1.05,29.53,3.3,0,7.2-9.89,10.34-26.68h13.49c-6,28.33-13.04,37.18-26.08,37.18-12.14,0-16.19-11.54-10.19-40.03Z"/>
        <path d="M1047.79,326.54h13.64l-6.3,29.38-1.65,7.8c3.3-6.75,7.2-9.14,12.29-9.14,7.5,0,11.09,7.19,7.95,22.19l-11.99,56.51h-13.64l10.34-48.57c3.15-14.84,3.3-20.09-.45-20.09s-5.85,5.25-8.99,20.09l-10.34,48.57h-13.64l16.34-76.75,6.45-29.98Z"/>
        <path d="M1081.25,394.6c6.15-29.68,13.34-40.02,27.28-40.02,12.74,0,16.49,11.84,10.49,40.02-6.15,29.68-13.34,40.03-27.28,40.03-12.74,0-16.49-11.84-10.49-40.03ZM1105.54,394.6c4.5-21.29,4.65-29.68.9-29.68s-7.2,8.4-11.69,29.68c-4.5,21.29-4.65,29.53-.9,29.53s7.2-8.24,11.69-29.53Z"/>
        <path d="M1126.56,403.44l13.19.15c-5.1,15.44-3.15,20.54.6,20.54,2.7.15,4.95-2.4,6-7.05,4.2-17.24-16.64-25.18-11.54-45.87,2.4-9.89,9.14-16.49,19.49-16.34,11.69.15,17.99,9.29,12.74,27.73h-12.59c3.75-12.14,2.55-17.54-1.05-17.54-2.7,0-4.65,2.55-5.55,6.6-3.3,15.74,17.69,22.63,11.84,46.02-2.55,10.19-9.44,16.79-20.39,16.64-16.64-.3-17.69-15.89-12.74-30.88Z"/>
        <path d="M1217.46,364.92c-3.6,0-6.6,7.19-8.84,21.89h-13.34c3.75-22.33,10.49-32.23,24.73-32.23,9.89.15,15.59,7.19,11.84,25.18l-11.39,53.52h-13.49l1.5-6.75c-3,5.1-6.9,8.09-12.59,8.09-7.64,0-10.49-8.25-8.69-16.94,4.5-21.14,28.03-22.94,31.18-37.78,1.65-7.19,3-14.99-.9-14.99ZM1203.97,423.53c3.6,0,6.3-5.85,7.5-11.39l3.75-17.54c-5.4,6.15-11.84,10.94-13.94,20.24-.9,5.1-.45,8.7,2.7,8.7Z"/>
        <path d="M1268.05,355.92h13.64l-1.5,6.9c3-5.7,6.75-8.24,12.14-8.24s8.7,3.75,9.14,10.94c3.3-7.49,7.49-10.94,13.94-10.94,7.49,0,11.09,7.35,7.94,22.19l-12.14,56.51h-13.49l10.34-48.57c3.15-14.84,3.15-20.09-.45-20.09-3,0-5.25,3.6-7.65,13.49l-11.69,55.17h-13.64l10.34-48.57c3.15-14.84,3.3-20.09-.45-20.09-3.15,0-5.55,3.9-7.79,14.39l-11.54,54.27h-13.64l16.49-77.35Z"/>
        <path d="M1355.48,364.92c-3.6,0-6.6,7.19-8.84,21.89h-13.34c3.75-22.33,10.49-32.23,24.73-32.23,9.89.15,15.59,7.19,11.84,25.18l-11.39,53.52h-13.49l1.5-6.75c-3,5.1-6.9,8.09-12.59,8.09-7.64,0-10.49-8.25-8.69-16.94,4.5-21.14,28.03-22.94,31.18-37.78,1.65-7.19,3-14.99-.9-14.99ZM1341.99,423.53c3.6,0,6.3-5.85,7.5-11.39l3.75-17.54c-5.4,6.15-11.84,10.94-13.94,20.24-.9,5.1-.45,8.7,2.7,8.7Z"/>
        <path d="M1387.9,355.92h13.64l-1.65,7.8c3.3-6.75,7.2-9.14,12.29-9.14,7.5,0,11.09,7.19,7.95,22.19l-11.99,56.51h-13.64l10.34-48.57c3.15-14.84,3.3-20.09-.45-20.09s-5.85,5.25-8.99,20.09l-10.34,48.57h-13.64l16.49-77.35Z"/>
        <path d="M1427.65,394.6c6.15-29.68,13.34-40.02,27.28-40.02,12.74,0,16.49,11.84,10.49,40.02-6.15,29.68-13.34,40.03-27.28,40.03-12.74,0-16.49-11.84-10.49-40.03ZM1451.94,394.6c4.5-21.29,4.65-29.68.9-29.68s-7.2,8.4-11.69,29.68c-4.5,21.29-4.65,29.53-.9,29.53s7.2-8.24,11.69-29.53Z"/>
        <path d="M1470.11,424.58c1.05-5.4,4.95-8.99,9.3-8.99,5.1,0,7.94,4.35,6.75,10.04-1.05,5.25-4.95,8.7-9.44,8.7-5.1,0-7.79-4.2-6.6-9.74ZM1490.35,328.34h16.34c-7.94,25.93-15.74,56.06-20.98,80.8h-8.7c5.25-24.73,10.19-54.87,13.34-80.8Z"/>
      </g>
    </g>
  </g>
</svg>